<?xml version="1.0" encoding="UTF-8" standalone="no"?>
<!-- Created with Inkscape (http://www.inkscape.org/) -->

<svg
   width="256"
   height="256"
   viewBox="0 0 256 256"
   version="1.1"
   id="svg397"
   inkscape:version="1.2.2 (b0a8486541, 2022-12-01)"
   sodipodi:docname="icon.svg"
   inkscape:export-filename="icon.png"
   inkscape:export-xdpi="96"
   inkscape:export-ydpi="96"
   xmlns:inkscape="http://www.inkscape.org/namespaces/inkscape"
   xmlns:sodipodi="http://sodipodi.sourceforge.net/DTD/sodipodi-0.dtd"
   xmlns:xlink="http://www.w3.org/1999/xlink"
   xmlns="http://www.w3.org/2000/svg"
   xmlns:svg="http://www.w3.org/2000/svg">
  <sodipodi:namedview
     id="namedview399"
     pagecolor="#ffffff"
     bordercolor="#000000"
     borderopacity="0.25"
     inkscape:showpageshadow="2"
     inkscape:pageopacity="0.0"
     inkscape:pagecheckerboard="0"
     inkscape:deskcolor="#d1d1d1"
     inkscape:document-units="px"
     showgrid="false"
     inkscape:zoom="3.2046027"
     inkscape:cx="107.81368"
     inkscape:cy="113.4306"
     inkscape:window-width="1569"
     inkscape:window-height="1272"
     inkscape:window-x="53"
     inkscape:window-y="48"
     inkscape:window-maximized="0"
     inkscape:current-layer="layer1" />
  <defs
     id="defs394">
    <inkscape:path-effect
       effect="powerclip"
       id="path-effect1805"
       is_visible="true"
       lpeversion="1"
       inverse="true"
       flatten="false"
       hide_clip="false"
       message="Use fill-rule evenodd on &lt;b&gt;fill and stroke&lt;/b&gt; dialog if no flatten result after convert clip to paths." />
    <filter
       inkscape:collect="always"
       style="color-interpolation-filters:sRGB"
       id="filter58492"
       x="-0.011999856"
       width="1.0239997"
       y="-0.012000144"
       height="1.0240003">
      <feGaussianBlur
         inkscape:collect="always"
         stdDeviation="1.1200135"
         id="feGaussianBlur58494" />
    </filter>
    <filter
       inkscape:collect="always"
       style="color-interpolation-filters:sRGB"
       id="filter58449"
       x="-0.047999425"
       width="1.0959989"
       y="-0.048000574"
       height="1.0960011">
      <feGaussianBlur
         inkscape:collect="always"
         stdDeviation="4.4800539"
         id="feGaussianBlur58451" />
    </filter>
    <linearGradient
       inkscape:collect="always"
       xlink:href="#linearGradient4338-7"
       id="linearGradient1694"
       x1="39.997601"
       y1="203.99699"
       x2="263.99759"
       y2="107.997"
       gradientUnits="userSpaceOnUse"
       gradientTransform="rotate(90,154.49865,129.50105)" />
    <linearGradient
       inkscape:collect="always"
       id="linearGradient4338-7">
      <stop
         id="stop4342-6"
         offset="0"
         style="stop-color:#212121;stop-opacity:1;" />
      <stop
         id="stop4340-2"
         offset="1"
         style="stop-color:#252525;stop-opacity:1;" />
    </linearGradient>
    <clipPath
       clipPathUnits="userSpaceOnUse"
       id="clipPath1801">
      <circle
         style="display:none;opacity:0.1;fill:#ffffff;fill-opacity:1;stroke:none;stroke-width:0"
         id="circle1803"
         cx="96"
         cy="86.51606"
         r="14"
         d="m 110,86.51606 a 14,14 0 0 1 -14,14 14,14 0 0 1 -14,-14 14,14 0 0 1 14,-14 14,14 0 0 1 14,14 z" />
      <path
         id="lpe_path-effect1805"
         style="opacity:0.1;fill:#ffffff;fill-opacity:1;stroke:none;stroke-width:0"
         class="powerclip"
         d="m 75,65.51606 h 42 v 42 H 75 Z m 35,21 a 14,14 0 0 0 -14,-14 14,14 0 0 0 -14,14 14,14 0 0 0 14,14 14,14 0 0 0 14,-14 z" />
    </clipPath>
    <clipPath
       clipPathUnits="userSpaceOnUse"
       id="clipPath1801-5">
      <circle
         style="display:none;opacity:0.1;fill:#ffffff;fill-opacity:1;stroke:none;stroke-width:0"
         id="circle1803-6"
         cx="96"
         cy="86.51606"
         r="14"
         d="m 110,86.51606 a 14,14 0 0 1 -14,14 14,14 0 0 1 -14,-14 14,14 0 0 1 14,-14 14,14 0 0 1 14,14 z" />
      <path
         id="lpe_path-effect1805-2"
         style="opacity:0.1;fill:#ffffff;fill-opacity:1;stroke:none;stroke-width:0"
         class="powerclip"
         d="m 75,65.51606 h 42 v 42 H 75 Z m 35,21 a 14,14 0 0 0 -14,-14 14,14 0 0 0 -14,14 14,14 0 0 0 14,14 14,14 0 0 0 14,-14 z" />
    </clipPath>
    <inkscape:path-effect
       effect="powerclip"
       id="path-effect1805-9"
       is_visible="true"
       lpeversion="1"
       inverse="true"
       flatten="false"
       hide_clip="false"
       message="Use fill-rule evenodd on &lt;b&gt;fill and stroke&lt;/b&gt; dialog if no flatten result after convert clip to paths." />
    <clipPath
       clipPathUnits="userSpaceOnUse"
       id="clipath_lpe_path-effect1805-9">
      <circle
         style="display:none;opacity:0.1;fill:#ffffff;fill-opacity:1;stroke:none;stroke-width:0"
         id="circle1855"
         cx="96"
         cy="86.51606"
         r="14"
         d="m 110,86.51606 a 14,14 0 0 1 -14,14 14,14 0 0 1 -14,-14 14,14 0 0 1 14,-14 14,14 0 0 1 14,14 z" />
      <path
         id="lpe_path-effect1805-9"
         style="opacity:0.1;fill:#ffffff;fill-opacity:1;stroke:none;stroke-width:0"
         class="powerclip"
         d="m 75,65.51606 h 42 v 42 H 75 Z m 35,21 a 14,14 0 0 0 -14,-14 14,14 0 0 0 -14,14 14,14 0 0 0 14,14 14,14 0 0 0 14,-14 z" />
    </clipPath>
    <clipPath
       clipPathUnits="userSpaceOnUse"
       id="clipPath1801-2">
      <circle
         style="display:none;opacity:0.1;fill:#ffffff;fill-opacity:1;stroke:none;stroke-width:0"
         id="circle1803-7"
         cx="96"
         cy="86.51606"
         r="14"
         d="m 110,86.51606 a 14,14 0 0 1 -14,14 14,14 0 0 1 -14,-14 14,14 0 0 1 14,-14 14,14 0 0 1 14,14 z" />
      <path
         id="lpe_path-effect1805-0"
         style="opacity:0.1;fill:#ffffff;fill-opacity:1;stroke:none;stroke-width:0"
         class="powerclip"
         d="m 75,65.51606 h 42 v 42 H 75 Z m 35,21 a 14,14 0 0 0 -14,-14 14,14 0 0 0 -14,14 14,14 0 0 0 14,14 14,14 0 0 0 14,-14 z" />
    </clipPath>
    <inkscape:path-effect
       effect="powerclip"
       id="path-effect1805-93"
       is_visible="true"
       lpeversion="1"
       inverse="true"
       flatten="false"
       hide_clip="false"
       message="Use fill-rule evenodd on &lt;b&gt;fill and stroke&lt;/b&gt; dialog if no flatten result after convert clip to paths." />
    <clipPath
       clipPathUnits="userSpaceOnUse"
       id="clipath_lpe_path-effect1805-93">
      <circle
         style="display:none;opacity:0.1;fill:#ffffff;fill-opacity:1;stroke:none;stroke-width:0"
         id="circle1885"
         cx="96"
         cy="86.51606"
         r="14"
         d="m 110,86.51606 a 14,14 0 0 1 -14,14 14,14 0 0 1 -14,-14 14,14 0 0 1 14,-14 14,14 0 0 1 14,14 z" />
      <path
         id="lpe_path-effect1805-93"
         style="opacity:0.1;fill:#ffffff;fill-opacity:1;stroke:none;stroke-width:0"
         class="powerclip"
         d="m 75,65.51606 h 42 v 42 H 75 Z m 35,21 a 14,14 0 0 0 -14,-14 14,14 0 0 0 -14,14 14,14 0 0 0 14,14 14,14 0 0 0 14,-14 z" />
    </clipPath>
  </defs>
  <g
     inkscape:label="Layer 1"
     inkscape:groupmode="layer"
     id="layer1">
    <rect
       style="fill:none;stroke:none;stroke-width:0"
       id="rect794"
       width="256"
       height="256"
       x="5e-07"
       y="-1.2908053e-07" />
    <path
       style="color:#000000;display:inline;overflow:visible;visibility:visible;opacity:0.1;fill:#000000;fill-opacity:1;fill-rule:nonzero;stroke:none;stroke-width:1;marker:none;filter:url(#filter58492);enable-background:accumulate"
       d="m 201.07567,15.999994 c 35.29673,0 39.09461,3.62542 38.92162,38.99353 V 128 201.00648 c 0.17299,35.36812 -3.62489,38.99353 -38.92162,38.99353 H 54.918919 c -35.29671,0 -38.92161,-3.625 -38.92161,-38.99353 V 128 54.993524 c 0,-35.36853 3.6249,-38.99353 38.92161,-38.99353 z"
       id="rect4158-7"
       inkscape:connector-curvature="0"
       sodipodi:nodetypes="scccssscsss" />
    <path
       style="color:#000000;display:inline;overflow:visible;visibility:visible;opacity:0.2;fill:#000000;fill-opacity:1;fill-rule:nonzero;stroke:none;stroke-width:1;marker:none;filter:url(#filter58449);enable-background:accumulate"
       d="m 201.07567,15.999994 c 35.29673,0 39.09461,3.62542 38.92162,38.99353 V 128 201.00648 c 0.17299,35.36812 -3.62489,38.99353 -38.92162,38.99353 H 54.918919 c -35.29671,0 -38.92161,-3.625 -38.92161,-38.99353 V 128 54.993524 c 0,-35.36853 3.6249,-38.99353 38.92161,-38.99353 z"
       id="rect4158-1"
       inkscape:connector-curvature="0"
       sodipodi:nodetypes="scccssscsss" />
    <path
       style="color:#000000;display:inline;overflow:visible;visibility:visible;fill:url(#linearGradient1694);fill-opacity:1;fill-rule:nonzero;stroke:none;stroke-width:1;marker:none;enable-background:accumulate"
       d="m 201.07567,14.999695 c 35.29673,0 39.09461,3.625419 38.92162,38.993533 v 73.006472 73.00648 c 0.17299,35.36812 -3.62489,38.99353 -38.92162,38.99353 H 54.918919 c -35.29671,0 -38.92161,-3.625 -38.92161,-38.99353 V 126.9997 53.993228 c 0,-35.368534 3.6249,-38.993533 38.92161,-38.993533 z"
       id="rect4158"
       inkscape:connector-curvature="0"
       sodipodi:nodetypes="scccssscsss" />
    <path
       style="color:#000000;display:inline;overflow:visible;visibility:visible;opacity:0.1;fill:#ffffff;fill-opacity:1;fill-rule:nonzero;stroke:none;stroke-width:1;marker:none;enable-background:accumulate"
       d="m 54.924581,14.999705 c -35.296728,0 -39.09487,3.626029 -38.92188,38.994137 v 2 C 15.829711,20.625734 19.627853,16.999704 54.924581,16.999704 H 201.08082 c 35.29673,0 38.92188,3.62561 38.92188,38.994138 v -2 c 0,-35.368528 -3.62515,-38.994137 -38.92188,-38.994137 z"
       id="path931"
       inkscape:connector-curvature="0"
       sodipodi:nodetypes="sccsscsss" />
    <path
       style="color:#000000;display:inline;overflow:visible;visibility:visible;opacity:0.36;fill:#000000;fill-opacity:1;fill-rule:nonzero;stroke:none;stroke-width:1;marker:none;enable-background:accumulate"
       d="m 54.929981,238.99971 c -35.296731,0 -39.094875,-3.62603 -38.921885,-38.99414 v -2 c -0.17299,35.36811 3.625154,38.99414 38.921885,38.99414 H 201.08622 c 35.29673,0 38.92188,-3.62561 38.92188,-38.99414 v 2 c 0,35.36853 -3.62515,38.99414 -38.92188,38.99414 z"
       id="path931-8"
       inkscape:connector-curvature="0"
       sodipodi:nodetypes="sccsscsss" />
    <g
       id="g1997"
       transform="matrix(1.0882353,0,0,1.0882353,-11.294123,-10.749837)">
      <circle
         style="opacity:1;fill:#edb425;fill-opacity:1;stroke:none;stroke-width:0"
         id="path1403"
         cx="128"
         cy="128"
         r="16" />
      <circle
         style="fill:#3fcd17;fill-opacity:1;stroke:none;stroke-width:0"
         id="path1403-3"
         cx="180"
         cy="128"
         r="16" />
      <circle
         style="opacity:1;fill:#e64f46;fill-opacity:1;stroke:none;stroke-width:0"
         id="path1509"
         cx="76"
         cy="126.9997"
         r="16" />
      <path
         style="opacity:0.1;fill:#ffffff;fill-opacity:1;stroke:none;stroke-width:0"
         id="path1590"
         clip-path="url(#clipPath1801)"
         inkscape:path-effect="#path-effect1805"
         sodipodi:type="arc"
         sodipodi:cx="96"
         sodipodi:cy="86.51606"
         sodipodi:rx="16"
         sodipodi:ry="16"
         d="m 112,86.51606 a 16,16 0 0 1 -16,16 16,16 0 0 1 -16,-16 16,16 0 0 1 16,-16 16,16 0 0 1 16,16 z"
         transform="translate(-20,40.483643)" />
      <path
         style="opacity:0.1;fill:#ffffff;fill-opacity:1;stroke:none;stroke-width:0"
         id="path1590-1"
         clip-path="url(#clipath_lpe_path-effect1805-9)"
         inkscape:path-effect="#path-effect1805-9"
         sodipodi:type="arc"
         sodipodi:cx="96"
         sodipodi:cy="86.51606"
         sodipodi:rx="16"
         sodipodi:ry="16"
         d="m 112,86.51606 a 16,16 0 0 1 -16,16 16,16 0 0 1 -16,-16 16,16 0 0 1 16,-16 16,16 0 0 1 16,16 z"
         transform="translate(32,41.48394)" />
      <path
         style="opacity:0.1;fill:#ffffff;fill-opacity:1;stroke:none;stroke-width:0"
         id="path1590-6"
         clip-path="url(#clipath_lpe_path-effect1805-93)"
         inkscape:path-effect="#path-effect1805-93"
         sodipodi:type="arc"
         sodipodi:cx="96"
         sodipodi:cy="86.51606"
         sodipodi:rx="16"
         sodipodi:ry="16"
         d="m 112,86.51606 a 16,16 0 0 1 -16,16 16,16 0 0 1 -16,-16 16,16 0 0 1 16,-16 16,16 0 0 1 16,16 z"
         transform="translate(84,41.48394)" />
    </g>
  </g>
</svg>
